<?xml version="1.0" ?><svg viewBox="0 0 64 64" xmlns="http://www.w3.org/2000/svg"><title/><g data-name="Layer 3" id="Layer_3"><path d="M26,35a1,1,0,0,0-1,1v3a1,1,0,0,0,2,0V36A1,1,0,0,0,26,35Z"/><path d="M38,40a1,1,0,0,0,1-1V36a1,1,0,0,0-2,0v3A1,1,0,0,0,38,40Z"/><path d="M32,9.59C12,8.35,8.59,37.65,8.94,43s10.24,8,10.24,8L18,49.29,22.71,52c-.26-1-.48-1.86-.69-2.76A9.47,9.47,0,0,0,26,52l-.84-1.51A4.71,4.71,0,0,0,27.59,52l-.47-.94,1.38.32v1.29a1.14,1.14,0,0,1-1.06,1.13l-7,.47a4.27,4.27,0,0,0-4,4.25v4h31v-4a4.27,4.27,0,0,0-4-4.25l-7-.47a1.14,1.14,0,0,1-1.06-1.13V51.39l1.43-.33-.47.94a4.67,4.67,0,0,0,2.43-1.51L38.05,52A9.34,9.34,0,0,0,42,49.32c-.2.88-.41,1.76-.66,2.68L46,49.29,44.82,51s9.89-2.65,10.24-8S52,8.35,32,9.59Zm-.72,40.47-.54,0L30.2,50,30,50c-.13,0-.25,0-.43-.07l-.34-.05-.16,0a17.47,17.47,0,0,1-1.8-.47,33.18,33.18,0,0,1-3.22-1.27,9.29,9.29,0,0,1-2.7-1.94c-1.59-8.64-1-14.85.14-19.07A21.48,21.48,0,0,0,29,33.71a14.45,14.45,0,0,1-1.41-4.24s4.88,4,10.41,4.24c0,0-.65-1.37-1.35-3.33,0,0,4.82,2,5.53,4.86a15.94,15.94,0,0,0,1-4.45,48.16,48.16,0,0,1-.62,15.35,9.31,9.31,0,0,1-2.69,1.92,33.18,33.18,0,0,1-3.22,1.27c-.57.18-1.16.34-1.78.47h-.1l-.07,0-.4.06L34,50l-.22,0-.51.05-.5,0C32.24,50.08,31.75,50.08,31.28,50.06ZM36.5,54.8l1.42.09c-.3.83-1.53,3.26-5.92,3.33s-5.64-2.48-5.92-3.32l1.42-.1a2.15,2.15,0,0,0,2-2.13V50.88c.13,0,.26,0,.4.06l.24,0,.51.05.58,0,.77,0,.78,0,.54,0L33.8,51l.3,0,.4-.06v1.79A2.15,2.15,0,0,0,36.5,54.8Z"/></g></svg>